# xmcd
#
# Track frame offsets: 
#        183
#        16160
#        44078
#        60950
#
# Disc length: 1188 seconds
#
# Revision: 1
# Processed by: cddbd v1.5.2PL0 Copyright (c) Steve Scherf et al.
# Submitted via: ExactAudioCopy v1.0b1
#
DISCID=2904a204
DTITLE=Clubhouse - Deep In My Heart CDM
DYEAR=1991
DGENRE=Euro-House
TTITLE0=Club House - Deep In My Heart (Radio Mix)
TTITLE1=Club House - Deep In My Heart (Extended Mix)
TTITLE2=Club House - Deep In My Heart (Funky House Version)
TTITLE3=Club House - Deep In My Heart (Afro Mix)
EXTD=
EXTT0=
EXTT1=
EXTT2=
EXTT3=
PLAYORDER=
